<?xml version="1.0" encoding="utf-8"?><!-- Uploaded to: SVG Repo, www.svgrepo.com, Generator: SVG Repo Mixer Tools -->
<svg width="800px" height="800px" viewBox="0 0 24 24" id="_24x24_On_Light_Media" data-name="24x24/On Light/Media" xmlns="http://www.w3.org/2000/svg">
  <rect id="view-box" width="24" height="24" fill="none"/>
  <path id="Shape" d="M2.75,17.5A2.753,2.753,0,0,1,0,14.749v-8A2.754,2.754,0,0,1,2.75,4h9A2.753,2.753,0,0,1,14.5,6.643L17.1,5.6a1.75,1.75,0,0,1,2.4,1.625v7.046A1.75,1.75,0,0,1,17.1,15.9l-2.6-1.041A2.752,2.752,0,0,1,11.75,17.5ZM1.5,6.75v8A1.251,1.251,0,0,0,2.75,16h9A1.251,1.251,0,0,0,13,14.749v-8A1.252,1.252,0,0,0,11.75,5.5h-9A1.252,1.252,0,0,0,1.5,6.75Zm16.157.245L14.5,8.258v4.985l3.157,1.263a.254.254,0,0,0,.093.018.25.25,0,0,0,.25-.25V7.227a.239.239,0,0,0-.018-.093.248.248,0,0,0-.232-.158A.257.257,0,0,0,17.657,6.995ZM2.75,1.5a.75.75,0,1,1,0-1.5h9a.75.75,0,0,1,0,1.5Z" transform="translate(2.25 3.25)" fill="#141124"/>
</svg>