<?xml version="1.0" encoding="iso-8859-1"?>
<!-- Uploaded to: SVG Repo, www.svgrepo.com, Generator: SVG Repo Mixer Tools -->
<!DOCTYPE svg PUBLIC "-//W3C//DTD SVG 1.1//EN" "http://www.w3.org/Graphics/SVG/1.1/DTD/svg11.dtd">
<svg fill="#000000" version="1.1" id="Capa_1" xmlns="http://www.w3.org/2000/svg" xmlns:xlink="http://www.w3.org/1999/xlink" 
	 width="800px" height="800px" viewBox="0 0 114.873 114.873"
	 xml:space="preserve">
<g>
	<path d="M66.042,108.674c-2.793,0-5.296-1.231-6.104-2.424c-1.203-1.774-2.227-4.562-2.984-6.789
		c-0.643-1.885-1.285-3.771-1.914-5.659c-0.139-0.418-0.495-0.601-0.916-0.789c-2.878,2.125-6.706,2.03-9.509-0.154
		c-0.075-0.06-0.204-0.105-0.294-0.105l-4.925,0.016l-2.282-0.006l-2.659,0.008v-0.012l-4.547-0.006
		c-0.09,0-0.219,0.047-0.294,0.105c-2.809,2.188-6.646,2.258-9.526,0.162c-0.468,0.213-0.769,0.391-0.898,0.781
		c-0.629,1.889-1.271,3.77-1.913,5.655c-0.761,2.231-1.786,5.021-2.986,6.793c-0.808,1.19-3.311,2.424-6.104,2.424
		c-1.919,0-3.7-0.594-5.15-1.713c-2.495-2.056-3.001-3.851-3.033-6.262c-0.021-1.742,0.074-3.597,0.283-5.509
		c0.422-3.854,1.153-7.67,1.813-10.895C2.907,80.351,3.76,76.9,4.708,73.75c0.397-1.32,0.982-3.033,1.996-4.564l0.629-0.955
		c0.499-0.76,0.998-1.52,1.513-2.27c0.174-0.254,0.439-0.412,0.719-0.566c0.043-0.024,0.1-0.057,0.114-0.069
		c0.003-0.253,0.184-0.479,0.335-0.599c0.161-0.127,0.363-0.24,0.599-0.338c2.657-1.086,5.37-1.125,8.039-0.111
		c0.395,0.146,0.602,0.455,0.566,0.847c-0.011,0.112,0.008,0.151,0.01,0.153l0,0c0.001,0,0.03,0.021,0.117,0.027l0.074,0.006
		l0.148,0.066c0.504,0.26,1.07,0.383,1.783,0.387h5.557c0.125-0.938,0.916-1.652,1.871-1.652h16.826
		c0.961,0,1.756,0.724,1.874,1.652h5.4c0.711-0.004,1.277-0.127,1.782-0.387l0.203-0.07c0.106-0.01,0.136-0.029,0.139-0.031
		c-0.001,0,0.018-0.037,0.007-0.149c-0.035-0.392,0.171-0.698,0.566-0.849c2.669-1.014,5.381-0.975,8.039,0.113
		c0.233,0.094,0.435,0.207,0.6,0.336c0.15,0.117,0.331,0.346,0.345,0.603c0.004,0.01,0.062,0.041,0.103,0.063
		c0.28,0.156,0.547,0.314,0.722,0.57c0.504,0.732,0.991,1.477,1.48,2.221l0.66,1.002c1.004,1.519,1.572,3.158,1.996,4.564
		c0.947,3.15,1.801,6.602,2.608,10.547c0.661,3.23,1.394,7.051,1.813,10.895c0.209,1.912,0.305,3.767,0.283,5.509
		c-0.033,2.411-0.539,4.207-3.024,6.254C69.743,108.082,67.961,108.674,66.042,108.674z M54.145,92.248l0.178,0.035
		c0.528,0.232,1.175,0.52,1.428,1.283c0.629,1.887,1.271,3.771,1.913,5.654c0.743,2.184,1.744,4.907,2.896,6.61
		c0.595,0.877,2.83,2.094,5.481,2.094c1.751,0,3.374-0.538,4.69-1.557c2.266-1.865,2.713-3.437,2.742-5.679
		c0.021-1.711-0.072-3.533-0.279-5.416c-0.415-3.812-1.145-7.612-1.801-10.826c-0.805-3.924-1.652-7.352-2.595-10.479
		c-0.407-1.355-0.952-2.931-1.901-4.367l-0.662-1.006c-0.486-0.738-0.973-1.479-1.473-2.207c-0.089-0.129-0.305-0.248-0.463-0.334
		c-0.191-0.109-0.467-0.265-0.49-0.685c-0.002,0.002-0.002,0.002-0.002,0.002c-0.006,0-0.031-0.033-0.057-0.054
		c-0.109-0.086-0.252-0.166-0.421-0.233c-2.483-1.017-4.996-1.051-7.491-0.104c-0.058,0.021-0.08,0.041-0.084,0.047
		c0.027,0.32-0.033,0.557-0.18,0.732c-0.143,0.172-0.354,0.27-0.63,0.295c-0.547,0.303-1.242,0.457-2.066,0.461h-5.369v7.809
		c0,0.113-0.008,0.223-0.021,0.33l0.003,0.117c0,0.973-0.712,1.778-1.657,1.895c-0.196,0.09-0.499,0.146-0.81,0.146H29.225
		c-0.369,0-0.725-0.078-1.058-0.236c-0.512-0.156-0.966-0.592-1.165-1.145c-0.165-0.308-0.263-0.705-0.263-1.107l0.017-7.809h-5.407
		c-0.826-0.004-1.521-0.158-2.126-0.472c-0.218-0.017-0.43-0.112-0.572-0.284c-0.146-0.177-0.207-0.412-0.179-0.703
		c-0.005-0.033-0.027-0.056-0.085-0.076c-2.495-0.947-5.008-0.908-7.491,0.104c-0.171,0.069-0.312,0.147-0.42,0.231
		c-0.029,0.023-0.057,0.063-0.063,0.078c-0.021,0.396-0.296,0.549-0.479,0.652c-0.166,0.092-0.383,0.211-0.471,0.34
		c-0.512,0.744-1.008,1.5-1.504,2.254l-0.631,0.959c-0.953,1.441-1.497,3.017-1.902,4.367c-0.942,3.129-1.79,6.557-2.594,10.48
		c-0.656,3.207-1.384,7.002-1.802,10.826c-0.207,1.883-0.301,3.705-0.279,5.416c0.03,2.242,0.478,3.812,2.751,5.686
		c1.309,1.01,2.931,1.549,4.683,1.549c2.651,0,4.888-1.217,5.482-2.094c1.15-1.701,2.151-4.426,2.896-6.611
		c0.643-1.887,1.284-3.768,1.913-5.654c0.253-0.766,0.899-1.051,1.419-1.278l0.187-0.039c0.206,0,0.393,0.129,0.444,0.168
		c2.607,1.896,6.072,1.842,8.625-0.147c0.207-0.162,0.497-0.265,0.755-0.265l5.297,0.017l1.909-0.006l1.959,0.006l0.324-0.01
		l4.924-0.007c0.258,0,0.548,0.103,0.755,0.265c2.551,1.989,6.014,2.049,8.628,0.145C53.753,92.375,53.941,92.248,54.145,92.248z
		 M28.779,64.863c-0.627,0-1.138,0.512-1.138,1.141v8.742c0,0.178,0.022,0.307,0.067,0.432c0.154,0.287,0.438,0.561,0.779,0.721
		c0.062,0.017,0.176,0.033,0.291,0.033h16.826c0.047,0,0.094-0.004,0.14-0.01c0.5-0.207,0.919-0.738,1.002-1.365l-0.003-8.51
		c0-0.672-0.511-1.184-1.139-1.184H28.779z M114.873,100.422H76.289l0.037-0.594c0.011-0.151,0.021-0.308,0.023-0.468
		c0.022-1.768-0.072-3.646-0.285-5.582c-0.418-3.811-1.135-7.557-1.781-10.719c-0.793-3.869-1.633-7.262-2.568-10.373
		c-0.427-1.418-1.062-3.264-2.193-4.975l-0.613-0.934c-0.502-0.764-0.98-1.492-1.475-2.211c-0.207-0.303-0.476-0.576-0.795-0.814
		l-0.093-0.098c-0.188-0.293-0.42-0.547-0.692-0.76c-0.314-0.246-0.68-0.453-1.082-0.617c-3.053-1.25-6.271-1.295-9.335-0.131
		c-0.601,0.225-1.1,0.615-1.444,1.129l-0.107,0.16l-0.295,0.008h-4.57l-0.111-0.125c-0.74-0.836-1.798-1.314-2.901-1.314H34.373
		V6.199h73.082v56.09c2.257,1.697,4.626,2.559,7.043,2.559h0.375V100.422z M77.088,99.672h37.034V65.588
		c-2.508-0.084-4.952-1.03-7.271-2.817l-0.146-0.111V6.949H35.123v54.308h10.883c1.261,0,2.471,0.522,3.346,1.438h4.134
		c0.424-0.562,1.003-0.991,1.686-1.248c3.237-1.229,6.657-1.184,9.883,0.138c0.467,0.188,0.891,0.433,1.262,0.722
		c0.32,0.25,0.599,0.549,0.824,0.889c0.363,0.277,0.67,0.598,0.912,0.951c0.496,0.723,0.979,1.455,1.461,2.188l0.635,0.965
		c1.187,1.794,1.846,3.705,2.287,5.173c0.94,3.133,1.787,6.549,2.584,10.438c0.649,3.18,1.371,6.946,1.793,10.786
		c0.215,1.968,0.312,3.875,0.289,5.673C77.098,99.474,77.094,99.574,77.088,99.672z M49.319,93.279
		c-2.588,0-4.693-2.105-4.693-4.693c0-2.586,2.105-4.691,4.693-4.691c2.587,0,4.692,2.105,4.692,4.691
		C54.011,91.172,51.906,93.279,49.319,93.279z M49.319,84.644c-2.175,0-3.943,1.768-3.943,3.94s1.769,3.942,3.943,3.942
		c2.174,0,3.942-1.77,3.942-3.942S51.493,84.644,49.319,84.644z M24.91,93.279c-2.587,0-4.692-2.105-4.692-4.693
		c0-2.586,2.105-4.691,4.692-4.691c2.588,0,4.693,2.105,4.693,4.691C29.603,91.172,27.498,93.279,24.91,93.279z M24.91,84.644
		c-2.174,0-3.942,1.768-3.942,3.94s1.769,3.942,3.942,3.942c2.175,0,3.943-1.77,3.943-3.942S27.084,84.644,24.91,84.644z
		 M36.639,90.417l-0.274-0.244l-0.005-0.204c0.003-0.062,0.003-0.121,0.001-0.181l-0.004-0.156l0.229-0.271l0.209-0.012l0.022,0.002
		l0.991-0.004c0.235,0,0.471,0.002,0.706,0.006l0.078-0.094l0.002-1.392c0-0.267,0.073-0.5,0.217-0.695
		c0.203-0.278,0.505-0.437,0.849-0.44c0.34-0.004,0.678-0.004,1.016-0.004h1.385l0.049,0.375c0.001,0.141,0.001,0.209-0.002,0.276
		l-0.01,0.192l-0.294,0.201l-0.127,0.006l-1.632-0.002c-0.067,0.062-0.071,0.107-0.072,0.152l0.001,0.393
		c0,0.318,0.001,0.634-0.002,0.949c-0.005,0.412-0.175,0.74-0.492,0.949c-0.197,0.129-0.431,0.195-0.695,0.195L36.639,90.417
		L36.639,90.417z M34.055,90.417l-0.209-0.002l-0.226,0.002c-0.001,0-0.001,0-0.002,0c-0.336,0-0.517-0.183-0.517-0.431l0.001-0.312
		c-0.001-0.217-0.001-0.434,0.012-0.65c0.035-0.594,0.507-1.041,1.097-1.041c0.369,0.004,0.726,0.004,1.083,0.004l1.432-0.002
		c0.063-0.092,0.062-0.146,0.052-0.194l-1.349-0.013l-2.04,0.002l-0.174-0.137c-0.058-0.061-0.124-0.17-0.112-0.336
		c0.003-0.039,0.002-0.08,0.001-0.121l-0.006-0.381l0.38-0.078h3.588c0.583,0,1.055,0.439,1.098,1.021
		c0.021,0.287-0.024,0.525-0.14,0.734c-0.121,0.221-0.373,0.5-0.877,0.557c-0.1,0.012-0.196,0.012-0.292,0.012l-1.328,0.002
		c-0.33,0-0.661,0-0.992-0.004c-0.052,0.104-0.051,0.162-0.051,0.219c-0.002,0.238-0.002,0.476,0,0.709l0.003,0.377L34.055,90.417z
		 M59.993,84.988c-4.789,0-8.685-3.895-8.685-8.684s3.896-8.685,8.685-8.685c4.788,0,8.685,3.896,8.685,8.685
		S64.781,84.988,59.993,84.988z M52.065,76.625c0.169,4.228,3.66,7.61,7.928,7.61c3.896,0,7.144-2.819,7.81-6.526
		c-0.502,0.75-1.355,1.244-2.324,1.244c-1.541,0-2.793-1.252-2.793-2.793c0-1.539,1.252-2.793,2.793-2.793
		c0.916,0,1.73,0.442,2.24,1.127c-0.716-3.06-3.207-5.442-6.324-6.002c0.873,0.473,1.467,1.397,1.467,2.459
		c0,1.539-1.254,2.793-2.793,2.793c-1.542,0-2.794-1.254-2.794-2.793c0-1.089,0.625-2.033,1.535-2.494
		c-3.57,0.537-6.369,3.461-6.714,7.09c0.28-1.245,1.396-2.18,2.725-2.18c1.541,0,2.794,1.254,2.794,2.793
		c0,1.541-1.253,2.793-2.794,2.793C53.437,78.955,52.287,77.947,52.065,76.625z M65.477,74.119c-1.127,0-2.043,0.916-2.043,2.043
		s0.916,2.043,2.043,2.043s2.045-0.916,2.045-2.043S66.604,74.119,65.477,74.119z M54.819,74.119c-1.127,0-2.043,0.916-2.043,2.043
		s0.916,2.043,2.043,2.043s2.044-0.916,2.044-2.043S55.946,74.119,54.819,74.119z M58.353,72.064
		c0.365,0.561,0.997,0.932,1.713,0.932c0.718,0,1.35-0.371,1.713-0.932H58.353z M60.066,68.99l1.767,2.99
		c0.177-0.303,0.276-0.654,0.276-1.027c0-1.127-0.916-2.045-2.043-2.045c-1.126,0-2.043,0.918-2.043,2.045
		c0,0.373,0.101,0.725,0.277,1.025L60.066,68.99z M59.564,71.314h1.004l-0.502-0.851L59.564,71.314z M14.236,84.988
		c-4.788,0-8.684-3.895-8.684-8.684s3.896-8.685,8.684-8.685c4.789,0,8.685,3.896,8.685,8.685S19.025,84.988,14.236,84.988z
		 M14.236,68.371c-4.375,0-7.934,3.559-7.934,7.934s3.559,7.934,7.934,7.934s7.935-3.559,7.935-7.934S18.611,68.371,14.236,68.371z
		 M60.066,84.172c-1.541,0-2.793-1.252-2.793-2.793c0-1.539,1.253-2.793,2.793-2.793c1.541,0,2.793,1.254,2.793,2.793
		C62.859,82.92,61.607,84.172,60.066,84.172z M60.066,79.336c-1.126,0-2.043,0.916-2.043,2.043s0.917,2.043,2.043,2.043
		c1.127,0,2.043-0.916,2.043-2.043S61.193,79.336,60.066,79.336z M15.421,83.961H13.16c-0.765,0-1.387-0.623-1.387-1.39V79.59
		c0-0.459,0.229-0.954,0.583-1.269l1.399-1.528c0.222-0.244,0.595-0.31,0.877-0.157c-0.114-0.136-0.179-0.306-0.178-0.479
		c0-0.025,0.001-0.05,0.004-0.074c-0.153,0.035-0.32,0.021-0.464-0.047c0.007,0.039,0.011,0.08,0.011,0.121
		c0.001,0.204-0.088,0.401-0.242,0.543l-1.559,1.428c-0.282,0.326-0.78,0.556-1.239,0.556H7.982c-0.764,0-1.386-0.621-1.386-1.388
		v-2.262c0-0.765,0.622-1.388,1.386-1.388h2.983c0.155,0,0.315,0.027,0.473,0.076v-0.229l0.903,0.823L12.327,74.3
		c-0.325-0.281-0.555-0.779-0.555-1.238v-2.983c0-0.765,0.622-1.388,1.387-1.388h2.261c0.766,0,1.388,0.623,1.388,1.388v2.983
		c0,0.154-0.026,0.314-0.075,0.472h0.228l-0.055,0.063l0.117-0.107v0.234c0.156-0.05,0.317-0.076,0.472-0.076h2.983
		c0.765,0,1.387,0.623,1.387,1.387v2.262c0,0.766-0.622,1.387-1.387,1.387h-2.983c-0.459,0-0.956-0.229-1.268-0.584l-1.184-1.082
		l1.924,2.103h-0.233c0.049,0.157,0.075,0.317,0.075,0.474v2.981C16.809,83.338,16.187,83.961,15.421,83.961z M14.286,77.299
		l-1.404,1.56c-0.223,0.199-0.357,0.488-0.357,0.731v2.981c0,0.353,0.285,0.64,0.637,0.64h2.261c0.352,0,0.638-0.287,0.638-0.64
		V79.59c0-0.198-0.091-0.432-0.236-0.606l-0.046-0.055L14.286,77.299z M16.846,74.668l-1.643,1.504l1.559,1.402
		c0.199,0.223,0.488,0.356,0.732,0.356h2.983c0.352,0,0.637-0.285,0.637-0.637v-2.262c0-0.352-0.285-0.637-0.637-0.637h-2.983
		c-0.2,0-0.433,0.09-0.606,0.235L16.846,74.668z M7.983,74.398c-0.351,0-0.636,0.285-0.636,0.637v2.262
		c0,0.352,0.285,0.637,0.636,0.637h2.983c0.245,0,0.534-0.135,0.704-0.328l1.588-1.457l-1.685-1.514
		c-0.174-0.146-0.406-0.236-0.607-0.236H7.983L7.983,74.398z M13.161,69.443c-0.352,0-0.637,0.285-0.637,0.637v2.984
		c0,0.244,0.135,0.533,0.328,0.703l1.445,1.576l1.526-1.675c0.146-0.174,0.235-0.403,0.235-0.604V70.08
		c0-0.352-0.286-0.637-0.638-0.637H13.161z M61.064,83.072l-0.935-0.934l-0.935,0.934l-0.756-0.758l0.934-0.935l-0.934-0.935
		l0.756-0.756l0.935,0.935l0.935-0.935l0.756,0.756l-0.934,0.935l0.934,0.935L61.064,83.072z M65.477,77.791
		c-0.914,0-1.658-0.744-1.658-1.658c0-0.916,0.744-1.66,1.658-1.66c0.916,0,1.66,0.744,1.66,1.66
		C67.137,77.045,66.393,77.791,65.477,77.791z M65.477,75.222c-0.5,0-0.908,0.407-0.908,0.909c0,0.5,0.408,0.908,0.908,0.908
		c0.502,0,0.91-0.408,0.91-0.908C66.387,75.629,65.979,75.222,65.477,75.222z M56.21,77.525h-2.783V74.74h2.783V77.525z
		 M54.177,76.775h1.283V75.49h-1.283V76.775z M49.588,73.562c-1.024,0-1.858-0.834-1.858-1.857v-3.053
		c0-1.025,0.834-1.859,1.858-1.859s1.858,0.834,1.858,1.859v3.053C51.447,72.728,50.613,73.562,49.588,73.562z M49.588,67.542
		c-0.611,0-1.108,0.498-1.108,1.108v3.054c0,0.61,0.497,1.106,1.108,1.106c0.611,0,1.108-0.496,1.108-1.106V68.65
		C50.697,68.041,50.2,67.542,49.588,67.542z M24.639,73.562c-1.024,0-1.857-0.834-1.857-1.857v-3.053
		c0-1.025,0.833-1.859,1.857-1.859c1.025,0,1.859,0.834,1.859,1.859v3.053C26.499,72.728,25.665,73.562,24.639,73.562z
		 M24.639,67.542c-0.61,0-1.107,0.498-1.107,1.108v3.054c0,0.61,0.497,1.106,1.107,1.106c0.611,0,1.109-0.496,1.109-1.106V68.65
		C25.749,68.041,25.25,67.542,24.639,67.542z M74.6,27.25c-0.24,0-0.435,0-0.646,0c0,0.146,0,0.268,0,0.387
		c0,1.52-0.002,3.041,0,4.561c0,0.23-0.021,0.455-0.235,0.584c-0.394,0.24-0.818,0.271-1.246,0.123
		c-0.406-0.141-0.488-0.283-0.488-0.721c-0.002-1.541-0.002-3.082-0.004-4.621c0-0.107,0-0.213,0-0.328c-0.234,0-0.422,0-0.654,0
		c0,0.145,0,0.254,0,0.363c0,1.541-0.002,3.08,0.004,4.621c0,0.238-0.053,0.445-0.266,0.568c-0.396,0.225-0.83,0.244-1.26,0.162
		c-0.496-0.092-0.646-0.309-0.648-0.82c0-1.52,0-3.039,0-4.561c0-0.105,0-0.213,0-0.32c-0.234,0-0.43,0-0.643,0
		c0,0.125,0,0.227,0,0.326c0,1.641,0,3.283,0.002,4.924c0,0.121,0.002,0.242,0.02,0.359c0.061,0.395,0.262,0.689,0.629,0.854
		c0.869,0.383,1.705,0.297,2.521-0.17c0.358,0.281,0.698,0.402,1.246,0.398c1.1-0.006,1.721-0.445,1.682-1.633L74.6,27.593
		C74.6,27.478,74.6,27.362,74.6,27.25z M74.087,21.208c-0.282-0.205-0.604-0.285-0.948-0.287c-0.929,0-1.857,0.006-2.787-0.002
		c-0.545-0.006-0.943-0.268-0.933-0.924c0.021-1.117,0.004-2.238,0.004-3.355c0-0.029-0.002-0.057,0.002-0.084
		c0.007-0.074-0.022-0.107-0.104-0.105c-0.137,0.006-0.274,0.006-0.413,0c-0.097-0.004-0.119,0.033-0.119,0.125
		c0.002,1.324,0,2.65,0.002,3.975c0.002,0.348,0.069,0.684,0.269,0.979c0.303,0.455,0.75,0.641,1.274,0.646
		c0.901,0.008,1.806,0.002,2.705,0.004c0.112,0,0.229,0.008,0.342,0.023c0.341,0.045,0.591,0.258,0.66,0.563
		c0.022,0.098,0.03,0.203,0.03,0.305c0.003,1.072,0,2.143,0,3.215c0,0.027-0.01,0.061,0.005,0.082
		c0.019,0.033,0.049,0.08,0.077,0.082c0.166,0.008,0.332,0.004,0.517,0.004c0-0.041,0-0.068,0-0.096
		c0-1.348,0.011-2.695-0.006-4.043C74.658,21.867,74.46,21.481,74.087,21.208z M74.214,9.929c-0.118-0.008-0.146,0.035-0.146,0.148
		c0.005,1.254,0.002,2.506,0.002,3.76c0,0.877,0.003,1.756,0,2.633c0,0.436-0.209,0.715-0.625,0.801
		c-0.18,0.037-0.372,0.045-0.553,0.02c-0.508-0.066-0.737-0.346-0.737-0.857c0-1.672-0.013-3.346,0.004-5.018
		c0.01-0.836-0.621-1.418-1.377-1.463c-0.627-0.037-1.257-0.016-1.886-0.023c-0.08,0-0.11,0.027-0.108,0.111
		c0.004,0.344,0.006,0.688,0,1.033c-0.002,0.098,0.035,0.119,0.125,0.119c0.474-0.004,0.946-0.002,1.422,0
		c0.144,0,0.285,0,0.427,0.016c0.397,0.043,0.77,0.313,0.764,0.844c-0.014,1.547-0.006,3.092-0.004,4.639
		c0,0.166,0.002,0.332,0.02,0.496c0.055,0.512,0.27,0.932,0.736,1.188c0.326,0.18,0.68,0.213,1.045,0.186
		c0.771-0.057,1.348-0.678,1.348-1.449c0-2.34,0-4.682,0-7.021c0-0.047,0-0.094,0-0.158C74.505,9.931,74.359,9.938,74.214,9.929z"/>
</g>
</svg>